<svg width="64" height="64" viewBox="0 0 64 64" fill="none" xmlns="http://www.w3.org/2000/svg">
<path d="M10 7C10 4.23858 12.2386 2 15 2H50C52.7614 2 55 4.23858 55 7V57C55 59.7614 52.7614 62 50 62H15C12.2386 62 10 59.7614 10 57V7Z" fill="white"/>
<path d="M29.4432 38.8182V38.6477C29.4621 36.839 29.6515 35.3996 30.0114 34.3295C30.3712 33.2595 30.8826 32.393 31.5455 31.7301C32.2083 31.0672 33.0038 30.4564 33.9318 29.8977C34.4905 29.5568 34.9924 29.1544 35.4375 28.6903C35.8826 28.2169 36.233 27.6723 36.4886 27.0568C36.7538 26.4413 36.8864 25.7595 36.8864 25.0114C36.8864 24.0833 36.6686 23.2784 36.233 22.5966C35.7974 21.9148 35.215 21.3892 34.4858 21.0199C33.7566 20.6506 32.947 20.4659 32.0568 20.4659C31.2803 20.4659 30.5322 20.6269 29.8125 20.9489C29.0928 21.2708 28.4915 21.7775 28.0085 22.4688C27.5256 23.16 27.2462 24.0644 27.1705 25.1818H23.5909C23.6667 23.572 24.0833 22.1941 24.8409 21.0483C25.608 19.9025 26.6165 19.0265 27.8665 18.4205C29.1259 17.8144 30.5227 17.5114 32.0568 17.5114C33.7235 17.5114 35.1724 17.8428 36.4034 18.5057C37.6439 19.1686 38.6004 20.0777 39.2727 21.233C39.9545 22.3883 40.2955 23.7045 40.2955 25.1818C40.2955 26.2235 40.1345 27.1657 39.8125 28.0085C39.5 28.8513 39.0455 29.6042 38.4489 30.267C37.8617 30.9299 37.1515 31.517 36.3182 32.0284C35.4849 32.5492 34.8172 33.0985 34.3153 33.6761C33.8134 34.2443 33.4489 34.9214 33.2216 35.7074C32.9943 36.4934 32.8712 37.4735 32.8523 38.6477V38.8182H29.4432ZM31.2614 47.2273C30.5606 47.2273 29.9593 46.9763 29.4574 46.4744C28.9555 45.9725 28.7045 45.3712 28.7045 44.6705C28.7045 43.9697 28.9555 43.3684 29.4574 42.8665C29.9593 42.3646 30.5606 42.1136 31.2614 42.1136C31.9621 42.1136 32.5634 42.3646 33.0653 42.8665C33.5672 43.3684 33.8182 43.9697 33.8182 44.6705C33.8182 45.1345 33.6998 45.5606 33.4631 45.9489C33.2358 46.3371 32.928 46.6496 32.5398 46.8864C32.161 47.1136 31.7348 47.2273 31.2614 47.2273Z" fill="black"/>
</svg>
